REM DIRINDEX 1\2,1\3,1\4,1\5
REM DIRNAME cjc117,folder01,folder02,folder03,folder04
TITLE ""
FILE "DISC1Track01.mp3" MP3
  TRACK 01 AUDIO
    TITLE "0:"
    INDEX 01 00:00:00
  TRACK 02 AUDIO
    TITLE "2:cjc117_0001"
    INDEX 01 00:00:01
  TRACK 03 AUDIO
    TITLE "0:"
    INDEX 01 00:01:11
  TRACK 04 AUDIO
    TITLE "3:cjc117_0002"
    INDEX 01 00:01:46
  TRACK 05 AUDIO
    TITLE "4:cjc117_0003"
    INDEX 01 00:03:47
  TRACK 06 AUDIO
    TITLE "5:cjc117_0004"
    INDEX 01 00:06:08
  TRACK 07 AUDIO
    TITLE "0:"
    INDEX 01 00:07:41
  TRACK 08 AUDIO
    TITLE "3:cjc117_0005"
    INDEX 01 00:08:03
  TRACK 09 AUDIO
    TITLE "4:cjc117_0006"
    INDEX 01 00:09:12
  TRACK 10 AUDIO
    TITLE "5:cjc117_0007"
    INDEX 01 00:11:23
  TRACK 11 AUDIO
    TITLE "0:"
    INDEX 01 00:12:36
  TRACK 12 AUDIO
    TITLE "3:cjc117_0008"
    INDEX 01 00:12:71
  TRACK 13 AUDIO
    TITLE "4:cjc117_0009"
    INDEX 01 00:15:15
  TRACK 14 AUDIO
    TITLE "5:cjc117_0010"
    INDEX 01 00:18:13
  TRACK 15 AUDIO
    TITLE "0:"
    INDEX 01 00:20:67
  TRACK 16 AUDIO
    TITLE "3:cjc117_0011"
    INDEX 01 00:21:27
  TRACK 17 AUDIO
    TITLE "4:cjc117_0012"
    INDEX 01 00:24:10
  TRACK 18 AUDIO
    TITLE "5:cjc117_0013"
    INDEX 01 00:26:73
  TRACK 19 AUDIO
    TITLE "0:"
    INDEX 01 00:28:57
  TRACK 20 AUDIO
    TITLE "3:cjc117_0014"
    INDEX 01 00:29:21
  TRACK 21 AUDIO
    TITLE "4:cjc117_0015"
    INDEX 01 00:30:54
  TRACK 22 AUDIO
    TITLE "5:cjc117_0016"
    INDEX 01 00:33:11
  TRACK 23 AUDIO
    TITLE "0:"
    INDEX 01 00:34:49
  TRACK 24 AUDIO
    TITLE "3:cjc117_0017"
    INDEX 01 00:35:10
  TRACK 25 AUDIO
    TITLE "4:cjc117_0018"
    INDEX 01 00:38:57
  TRACK 26 AUDIO
    TITLE "5:cjc117_0019"
    INDEX 01 00:42:21
  TRACK 27 AUDIO
    TITLE "0:"
    INDEX 01 00:44:60
  TRACK 28 AUDIO
    TITLE "3:cjc117_0020"
    INDEX 01 00:45:18
  TRACK 29 AUDIO
    TITLE "4:cjc117_0021"
    INDEX 01 00:47:40
  TRACK 30 AUDIO
    TITLE "5:cjc117_0022"
    INDEX 01 00:50:33
  TRACK 31 AUDIO
    TITLE "0:"
    INDEX 01 00:52:22
  TRACK 32 AUDIO
    TITLE "3:cjc117_0023"
    INDEX 01 00:52:59
  TRACK 33 AUDIO
    TITLE "4:cjc117_0024"
    INDEX 01 00:54:66
  TRACK 34 AUDIO
    TITLE "5:cjc117_0025"
    INDEX 01 00:58:13
  TRACK 35 AUDIO
    TITLE "0:"
    INDEX 01 01:00:33
  TRACK 36 AUDIO
    TITLE "3:cjc117_0026"
    INDEX 01 01:00:68
  TRACK 37 AUDIO
    TITLE "4:cjc117_0027"
    INDEX 01 01:01:70
  TRACK 38 AUDIO
    TITLE "5:cjc117_0028"
    INDEX 01 01:04:00
  TRACK 39 AUDIO
    TITLE "0:"
    INDEX 01 01:05:05
  TRACK 40 AUDIO
    TITLE "3:cjc117_0029"
    INDEX 01 01:05:44
  TRACK 41 AUDIO
    TITLE "4:cjc117_0030"
    INDEX 01 01:08:48
  TRACK 42 AUDIO
    TITLE "5:cjc117_0031"
    INDEX 01 01:11:45
  TRACK 43 AUDIO
    TITLE "0:"
    INDEX 01 01:13:57
  TRACK 44 AUDIO
    TITLE "3:cjc117_0032"
    INDEX 01 01:14:21
  TRACK 45 AUDIO
    TITLE "4:cjc117_0033"
    INDEX 01 01:16:52
  TRACK 46 AUDIO
    TITLE "5:cjc117_0034"
    INDEX 01 01:19:28
  TRACK 47 AUDIO
    TITLE "0:"
    INDEX 01 01:20:71
  TRACK 48 AUDIO
    TITLE "3:cjc117_0035"
    INDEX 01 01:21:37
  TRACK 49 AUDIO
    TITLE "4:cjc117_0036"
    INDEX 01 01:24:43
  TRACK 50 AUDIO
    TITLE "5:cjc117_0037"
    INDEX 01 01:28:53
  TRACK 51 AUDIO
    TITLE "0:"
    INDEX 01 01:31:63
  TRACK 52 AUDIO
    TITLE "3:cjc117_0038"
    INDEX 01 01:32:25
  TRACK 53 AUDIO
    TITLE "4:cjc117_0039"
    INDEX 01 01:35:18
  TRACK 54 AUDIO
    TITLE "5:cjc117_0040"
    INDEX 01 01:38:12
  TRACK 55 AUDIO
    TITLE "0:"
    INDEX 01 01:40:11
  TRACK 56 AUDIO
    TITLE "3:cjc117_0041"
    INDEX 01 01:40:46
  TRACK 57 AUDIO
    TITLE "4:cjc117_0042"
    INDEX 01 01:41:52
  TRACK 58 AUDIO
    TITLE "5:cjc117_0043"
    INDEX 01 01:44:13
  TRACK 59 AUDIO
    TITLE "0:"
    INDEX 01 01:45:49
